<svg xmlns="http://www.w3.org/2000/svg" width="500" height="540" fill="none"><path fill-rule="evenodd" clip-rule="evenodd" d="M250 535.998c138.071 0 250-119.091 250-265.999C500 123.092 388.071 4 250 4S0 123.092 0 269.999c0 146.908 111.929 265.999 250 265.999zm.5-50.998C362.338 485 453 388.517 453 269.5S362.338 54 250.5 54 48 150.483 48 269.5 138.662 485 250.5 485z" fill="#000"/><path d="M229.965 89.021c4.597-20.95 34.473-20.95 39.07 0l93.635 426.692C365.408 528.19 355.908 540 343.135 540h-187.27c-12.773 0-22.273-11.811-19.535-24.287l93.635-426.692z" fill="#000"/></svg>