<svg width="48" height="48" fill="none" xmlns="http://www.w3.org/2000/svg"><path fill-rule="evenodd" clip-rule="evenodd" d="M24 47.642c13.255 0 24-10.665 24-23.821C48 10.665 37.255 0 24 0S0 10.665 0 23.82c0 13.157 10.745 23.822 24 23.822zm.048-4.567c10.736 0 19.44-8.64 19.44-19.299 0-10.658-8.704-19.298-19.44-19.298s-19.44 8.64-19.44 19.298c0 10.658 8.704 19.299 19.44 19.299z" fill="#fff"/><path d="M22.077 7.614c.441-1.876 3.309-1.876 3.75 0l8.99 38.211c.262 1.117-.65 2.175-1.876 2.175H14.963c-1.226 0-2.138-1.058-1.875-2.175l8.989-38.211z" fill="#fff"/></svg>