<?xml version="1.0" encoding="UTF-8"?>
<svg xmlns="http://www.w3.org/2000/svg" width="500" height="540" viewBox="0 0 500 540" fill="none">
  <path fill-rule="evenodd" clip-rule="evenodd" d="M250 535.998C388.071 535.998 500 416.907 500 269.999C500 123.092 388.071 4 250 4C111.929 4 0 123.092 0 269.999C0 416.907 111.929 535.998 250 535.998ZM250.5 485C362.338 485 453 388.517 453 269.5C453 150.483 362.338 54 250.5 54C138.662 54 48 150.483 48 269.5C48 388.517 138.662 485 250.5 485Z" fill="black"></path>
  <path d="M229.965 89.021C234.562 68.0701 264.438 68.0702 269.035 89.021L362.67 515.713C365.408 528.19 355.908 540 343.135 540H155.865C143.092 540 133.592 528.189 136.33 515.713L229.965 89.021Z" fill="black"></path>
</svg>
