<svg width="48" height="48" viewBox="0 0 48 48" fill="none" xmlns="http://www.w3.org/2000/svg">
<path fill-rule="evenodd" clip-rule="evenodd" d="M24 47.6417C37.2548 47.6417 48 36.9767 48 23.8208C48 10.6649 37.2548 0 24 0C10.7452 0 0 10.6649 0 23.8208C0 36.9767 10.7452 47.6417 24 47.6417ZM24.048 43.0746C34.7844 43.0746 43.488 34.4344 43.488 23.7761C43.488 13.1178 34.7844 4.47761 24.048 4.47761C13.3116 4.47761 4.608 13.1178 4.608 23.7761C4.608 34.4344 13.3116 43.0746 24.048 43.0746Z" fill="white"/>
<path d="M22.0766 7.61382C22.518 5.73762 25.386 5.73763 25.8274 7.61382L34.8164 45.8251C35.0792 46.9423 34.1672 48 32.941 48H14.963C13.7368 48 12.8248 46.9423 13.0876 45.8251L22.0766 7.61382Z" fill="white"/>
</svg>
